<mxfile host="app.diagrams.net" modified="2024-06-25T00:05:29.801Z" agent="Mozilla/5.0 (Windows NT 10.0; Win64; x64) AppleWebKit/537.36 (KHTML, like Gecko) Chrome/126.0.0.0 Safari/537.36" etag="5Nlo35Zgy57pTcpdTJ5M" version="24.6.2" type="google">
  <diagram name="Page-1" id="5Fe1bXy7XkO1AJ4PdxeW">
    <mxGraphModel grid="1" page="1" gridSize="10" guides="1" tooltips="1" connect="1" arrows="1" fold="1" pageScale="1" pageWidth="850" pageHeight="1100" math="0" shadow="0">
      <root>
        <mxCell id="0" />
        <mxCell id="1" parent="0" />
        <mxCell id="X2My_VXnu280A-JcJ-9s-1" value="&lt;b style=&quot;&quot;&gt;&lt;i&gt;&lt;font style=&quot;font-size: 20px;&quot;&gt;Patron Builder&lt;/font&gt;&lt;/i&gt;&lt;/b&gt;" style="text;html=1;align=center;verticalAlign=middle;resizable=0;points=[];autosize=1;strokeColor=none;fillColor=none;" vertex="1" parent="1">
          <mxGeometry x="-960" y="-3400" width="160" height="40" as="geometry" />
        </mxCell>
        <mxCell id="X2My_VXnu280A-JcJ-9s-2" value="&lt;span style=&quot;font-size: 20px;&quot;&gt;&lt;b&gt;&lt;i&gt;ejercicio_22_SubteWay&lt;/i&gt;&lt;/b&gt;&lt;/span&gt;" style="text;html=1;align=center;verticalAlign=middle;resizable=0;points=[];autosize=1;strokeColor=none;fillColor=none;" vertex="1" parent="1">
          <mxGeometry x="510" y="-2820" width="250" height="40" as="geometry" />
        </mxCell>
        <mxCell id="X2My_VXnu280A-JcJ-9s-106" style="edgeStyle=orthogonalEdgeStyle;rounded=0;orthogonalLoop=1;jettySize=auto;html=1;endSize=12;startSize=12;" edge="1" parent="1" source="X2My_VXnu280A-JcJ-9s-69" target="X2My_VXnu280A-JcJ-9s-97">
          <mxGeometry relative="1" as="geometry" />
        </mxCell>
        <mxCell id="X2My_VXnu280A-JcJ-9s-69" value="Sanguche" style="swimlane;fontStyle=0;align=center;verticalAlign=top;childLayout=stackLayout;horizontal=1;startSize=30;horizontalStack=0;resizeParent=1;resizeLast=0;collapsible=1;marginBottom=0;rounded=0;shadow=0;strokeWidth=1;fillColor=#fff2cc;strokeColor=#d6b656;" vertex="1" parent="1">
          <mxGeometry x="-20" y="-3291" width="280" height="120" as="geometry">
            <mxRectangle x="110" y="-20" width="160" height="26" as="alternateBounds" />
          </mxGeometry>
        </mxCell>
        <mxCell id="X2My_VXnu280A-JcJ-9s-70" value="- precio: Integer" style="text;align=left;verticalAlign=top;spacingLeft=4;spacingRight=4;overflow=hidden;rotatable=0;points=[[0,0.5],[1,0.5]];portConstraint=eastwest;rounded=0;shadow=0;html=0;" vertex="1" parent="X2My_VXnu280A-JcJ-9s-69">
          <mxGeometry y="30" width="280" height="24" as="geometry" />
        </mxCell>
        <mxCell id="X2My_VXnu280A-JcJ-9s-71" value="" style="line;html=1;strokeWidth=1;align=left;verticalAlign=middle;spacingTop=-1;spacingLeft=3;spacingRight=3;rotatable=0;labelPosition=right;points=[];portConstraint=eastwest;" vertex="1" parent="X2My_VXnu280A-JcJ-9s-69">
          <mxGeometry y="54" width="280" height="8" as="geometry" />
        </mxCell>
        <mxCell id="X2My_VXnu280A-JcJ-9s-72" value="+ getPrecio()" style="text;align=left;verticalAlign=top;spacingLeft=4;spacingRight=4;overflow=hidden;rotatable=0;points=[[0,0.5],[1,0.5]];portConstraint=eastwest;rounded=0;shadow=0;html=0;" vertex="1" parent="X2My_VXnu280A-JcJ-9s-69">
          <mxGeometry y="62" width="280" height="24" as="geometry" />
        </mxCell>
        <mxCell id="X2My_VXnu280A-JcJ-9s-74" value="+ agregarIngrediente( ingrediente : Ingrediente )" style="text;align=left;verticalAlign=top;spacingLeft=4;spacingRight=4;overflow=hidden;rotatable=0;points=[[0,0.5],[1,0.5]];portConstraint=eastwest;rounded=0;shadow=0;html=0;" vertex="1" parent="X2My_VXnu280A-JcJ-9s-69">
          <mxGeometry y="86" width="280" height="24" as="geometry" />
        </mxCell>
        <mxCell id="X2My_VXnu280A-JcJ-9s-97" value="Ingrediente" style="swimlane;fontStyle=0;align=center;verticalAlign=top;childLayout=stackLayout;horizontal=1;startSize=30;horizontalStack=0;resizeParent=1;resizeLast=0;collapsible=1;marginBottom=0;rounded=0;shadow=0;strokeWidth=1;fillColor=#fff2cc;strokeColor=#d6b656;" vertex="1" parent="1">
          <mxGeometry x="420" y="-3301" width="240" height="140" as="geometry">
            <mxRectangle x="110" y="-20" width="160" height="26" as="alternateBounds" />
          </mxGeometry>
        </mxCell>
        <mxCell id="X2My_VXnu280A-JcJ-9s-103" value="- nombre : String" style="text;align=left;verticalAlign=top;spacingLeft=4;spacingRight=4;overflow=hidden;rotatable=0;points=[[0,0.5],[1,0.5]];portConstraint=eastwest;rounded=0;shadow=0;html=0;" vertex="1" parent="X2My_VXnu280A-JcJ-9s-97">
          <mxGeometry y="30" width="240" height="24" as="geometry" />
        </mxCell>
        <mxCell id="X2My_VXnu280A-JcJ-9s-102" value="- precio: Integer" style="text;align=left;verticalAlign=top;spacingLeft=4;spacingRight=4;overflow=hidden;rotatable=0;points=[[0,0.5],[1,0.5]];portConstraint=eastwest;rounded=0;shadow=0;html=0;" vertex="1" parent="X2My_VXnu280A-JcJ-9s-97">
          <mxGeometry y="54" width="240" height="24" as="geometry" />
        </mxCell>
        <mxCell id="X2My_VXnu280A-JcJ-9s-99" value="" style="line;html=1;strokeWidth=1;align=left;verticalAlign=middle;spacingTop=-1;spacingLeft=3;spacingRight=3;rotatable=0;labelPosition=right;points=[];portConstraint=eastwest;" vertex="1" parent="X2My_VXnu280A-JcJ-9s-97">
          <mxGeometry y="78" width="240" height="8" as="geometry" />
        </mxCell>
        <mxCell id="X2My_VXnu280A-JcJ-9s-104" value="+ getNombre()" style="text;align=left;verticalAlign=top;spacingLeft=4;spacingRight=4;overflow=hidden;rotatable=0;points=[[0,0.5],[1,0.5]];portConstraint=eastwest;rounded=0;shadow=0;html=0;" vertex="1" parent="X2My_VXnu280A-JcJ-9s-97">
          <mxGeometry y="86" width="240" height="24" as="geometry" />
        </mxCell>
        <mxCell id="X2My_VXnu280A-JcJ-9s-105" value="+ getPrecio()" style="text;align=left;verticalAlign=top;spacingLeft=4;spacingRight=4;overflow=hidden;rotatable=0;points=[[0,0.5],[1,0.5]];portConstraint=eastwest;rounded=0;shadow=0;html=0;" vertex="1" parent="X2My_VXnu280A-JcJ-9s-97">
          <mxGeometry y="110" width="240" height="24" as="geometry" />
        </mxCell>
        <mxCell id="X2My_VXnu280A-JcJ-9s-107" value="ingredientes" style="text;html=1;align=center;verticalAlign=middle;whiteSpace=wrap;rounded=0;fontSize=14;" vertex="1" parent="1">
          <mxGeometry x="290" y="-3261" width="90" height="18.75" as="geometry" />
        </mxCell>
        <mxCell id="X2My_VXnu280A-JcJ-9s-108" value="&lt;span style=&quot;color: rgb(0, 0, 0); font-family: Helvetica; font-style: normal; font-variant-ligatures: normal; font-variant-caps: normal; font-weight: 400; letter-spacing: normal; orphans: 2; text-align: center; text-indent: 0px; text-transform: none; widows: 2; word-spacing: 0px; -webkit-text-stroke-width: 0px; white-space: normal; background-color: rgb(251, 251, 251); text-decoration-thickness: initial; text-decoration-style: initial; text-decoration-color: initial; float: none; display: inline !important;&quot;&gt;&lt;font style=&quot;font-size: 20px;&quot;&gt;*&lt;/font&gt;&lt;/span&gt;" style="text;whiteSpace=wrap;html=1;" vertex="1" parent="1">
          <mxGeometry x="335" y="-3229.75" width="20" height="30" as="geometry" />
        </mxCell>
        <mxCell id="X2My_VXnu280A-JcJ-9s-114" style="edgeStyle=orthogonalEdgeStyle;rounded=0;orthogonalLoop=1;jettySize=auto;html=1;endSize=12;startSize=12;" edge="1" parent="1" source="X2My_VXnu280A-JcJ-9s-109" target="X2My_VXnu280A-JcJ-9s-69">
          <mxGeometry relative="1" as="geometry" />
        </mxCell>
        <mxCell id="X2My_VXnu280A-JcJ-9s-109" value="BuilderSanguche" style="swimlane;fontStyle=0;align=center;verticalAlign=top;childLayout=stackLayout;horizontal=1;startSize=30;horizontalStack=0;resizeParent=1;resizeLast=0;collapsible=1;marginBottom=0;rounded=0;shadow=0;strokeWidth=1;fillColor=#fff2cc;strokeColor=#d6b656;" vertex="1" parent="1">
          <mxGeometry x="-460" y="-3310" width="280" height="158" as="geometry">
            <mxRectangle x="110" y="-20" width="160" height="26" as="alternateBounds" />
          </mxGeometry>
        </mxCell>
        <mxCell id="X2My_VXnu280A-JcJ-9s-110" value="- precio: Integer" style="text;align=left;verticalAlign=top;spacingLeft=4;spacingRight=4;overflow=hidden;rotatable=0;points=[[0,0.5],[1,0.5]];portConstraint=eastwest;rounded=0;shadow=0;html=0;" vertex="1" parent="X2My_VXnu280A-JcJ-9s-109">
          <mxGeometry y="30" width="280" height="24" as="geometry" />
        </mxCell>
        <mxCell id="X2My_VXnu280A-JcJ-9s-111" value="" style="line;html=1;strokeWidth=1;align=left;verticalAlign=middle;spacingTop=-1;spacingLeft=3;spacingRight=3;rotatable=0;labelPosition=right;points=[];portConstraint=eastwest;" vertex="1" parent="X2My_VXnu280A-JcJ-9s-109">
          <mxGeometry y="54" width="280" height="8" as="geometry" />
        </mxCell>
        <mxCell id="X2My_VXnu280A-JcJ-9s-157" value="+ &lt;&lt;abstract&gt;&gt; agregarPan()" style="text;align=left;verticalAlign=top;spacingLeft=4;spacingRight=4;overflow=hidden;rotatable=0;points=[[0,0.5],[1,0.5]];portConstraint=eastwest;rounded=0;shadow=0;html=0;" vertex="1" parent="X2My_VXnu280A-JcJ-9s-109">
          <mxGeometry y="62" width="280" height="24" as="geometry" />
        </mxCell>
        <mxCell id="X2My_VXnu280A-JcJ-9s-158" value="+ &lt;&lt;abstract&gt;&gt; agregarAderezo()" style="text;align=left;verticalAlign=top;spacingLeft=4;spacingRight=4;overflow=hidden;rotatable=0;points=[[0,0.5],[1,0.5]];portConstraint=eastwest;rounded=0;shadow=0;html=0;" vertex="1" parent="X2My_VXnu280A-JcJ-9s-109">
          <mxGeometry y="86" width="280" height="24" as="geometry" />
        </mxCell>
        <mxCell id="X2My_VXnu280A-JcJ-9s-159" value="+ &lt;&lt;abstract&gt;&gt; agregarPrincipal()" style="text;align=left;verticalAlign=top;spacingLeft=4;spacingRight=4;overflow=hidden;rotatable=0;points=[[0,0.5],[1,0.5]];portConstraint=eastwest;rounded=0;shadow=0;html=0;" vertex="1" parent="X2My_VXnu280A-JcJ-9s-109">
          <mxGeometry y="110" width="280" height="24" as="geometry" />
        </mxCell>
        <mxCell id="X2My_VXnu280A-JcJ-9s-160" value="+ &lt;&lt;abstract&gt;&gt; agregarAdicional()" style="text;align=left;verticalAlign=top;spacingLeft=4;spacingRight=4;overflow=hidden;rotatable=0;points=[[0,0.5],[1,0.5]];portConstraint=eastwest;rounded=0;shadow=0;html=0;" vertex="1" parent="X2My_VXnu280A-JcJ-9s-109">
          <mxGeometry y="134" width="280" height="24" as="geometry" />
        </mxCell>
        <mxCell id="X2My_VXnu280A-JcJ-9s-115" value="sanguche" style="text;html=1;align=center;verticalAlign=middle;whiteSpace=wrap;rounded=0;fontSize=14;" vertex="1" parent="1">
          <mxGeometry x="-150" y="-3261" width="90" height="30" as="geometry" />
        </mxCell>
        <mxCell id="X2My_VXnu280A-JcJ-9s-116" value="1" style="text;html=1;align=center;verticalAlign=middle;whiteSpace=wrap;rounded=0;fontSize=14;" vertex="1" parent="1">
          <mxGeometry x="-130" y="-3231" width="50" height="31.25" as="geometry" />
        </mxCell>
        <mxCell id="X2My_VXnu280A-JcJ-9s-122" style="edgeStyle=orthogonalEdgeStyle;rounded=0;orthogonalLoop=1;jettySize=auto;html=1;endSize=12;startSize=12;" edge="1" parent="1" source="X2My_VXnu280A-JcJ-9s-117" target="X2My_VXnu280A-JcJ-9s-109">
          <mxGeometry relative="1" as="geometry" />
        </mxCell>
        <mxCell id="X2My_VXnu280A-JcJ-9s-117" value="SubteWay" style="swimlane;fontStyle=0;align=center;verticalAlign=top;childLayout=stackLayout;horizontal=1;startSize=30;horizontalStack=0;resizeParent=1;resizeLast=0;collapsible=1;marginBottom=0;rounded=0;shadow=0;strokeWidth=1;fillColor=#fff2cc;strokeColor=#d6b656;" vertex="1" parent="1">
          <mxGeometry x="-840" y="-3291" width="210" height="120" as="geometry">
            <mxRectangle x="110" y="-20" width="160" height="26" as="alternateBounds" />
          </mxGeometry>
        </mxCell>
        <mxCell id="X2My_VXnu280A-JcJ-9s-118" value="- precio: Integer" style="text;align=left;verticalAlign=top;spacingLeft=4;spacingRight=4;overflow=hidden;rotatable=0;points=[[0,0.5],[1,0.5]];portConstraint=eastwest;rounded=0;shadow=0;html=0;" vertex="1" parent="X2My_VXnu280A-JcJ-9s-117">
          <mxGeometry y="30" width="210" height="24" as="geometry" />
        </mxCell>
        <mxCell id="X2My_VXnu280A-JcJ-9s-119" value="" style="line;html=1;strokeWidth=1;align=left;verticalAlign=middle;spacingTop=-1;spacingLeft=3;spacingRight=3;rotatable=0;labelPosition=right;points=[];portConstraint=eastwest;" vertex="1" parent="X2My_VXnu280A-JcJ-9s-117">
          <mxGeometry y="54" width="210" height="8" as="geometry" />
        </mxCell>
        <mxCell id="X2My_VXnu280A-JcJ-9s-120" value="+ armarSancguche()" style="text;align=left;verticalAlign=top;spacingLeft=4;spacingRight=4;overflow=hidden;rotatable=0;points=[[0,0.5],[1,0.5]];portConstraint=eastwest;rounded=0;shadow=0;html=0;" vertex="1" parent="X2My_VXnu280A-JcJ-9s-117">
          <mxGeometry y="62" width="210" height="24" as="geometry" />
        </mxCell>
        <mxCell id="X2My_VXnu280A-JcJ-9s-123" value="builder" style="text;html=1;align=center;verticalAlign=middle;whiteSpace=wrap;rounded=0;fontSize=14;" vertex="1" parent="1">
          <mxGeometry x="-590" y="-3261" width="90" height="30" as="geometry" />
        </mxCell>
        <mxCell id="X2My_VXnu280A-JcJ-9s-124" value="1" style="text;html=1;align=center;verticalAlign=middle;whiteSpace=wrap;rounded=0;fontSize=14;" vertex="1" parent="1">
          <mxGeometry x="-570" y="-3231" width="50" height="31.25" as="geometry" />
        </mxCell>
        <mxCell id="X2My_VXnu280A-JcJ-9s-182" style="edgeStyle=orthogonalEdgeStyle;rounded=0;orthogonalLoop=1;jettySize=auto;html=1;endSize=12;startSize=12;endArrow=block;endFill=0;dashed=1;dashPattern=8 8;" edge="1" parent="1" source="X2My_VXnu280A-JcJ-9s-126" target="X2My_VXnu280A-JcJ-9s-109">
          <mxGeometry relative="1" as="geometry">
            <Array as="points">
              <mxPoint x="-680" y="-3101" />
              <mxPoint x="-320" y="-3101" />
            </Array>
          </mxGeometry>
        </mxCell>
        <mxCell id="X2My_VXnu280A-JcJ-9s-126" value="BuilderSangucheClasico" style="swimlane;fontStyle=0;align=center;verticalAlign=top;childLayout=stackLayout;horizontal=1;startSize=30;horizontalStack=0;resizeParent=1;resizeLast=0;collapsible=1;marginBottom=0;rounded=0;shadow=0;strokeWidth=1;fillColor=#fff2cc;strokeColor=#d6b656;" vertex="1" parent="1">
          <mxGeometry x="-780" y="-3011" width="200" height="150" as="geometry">
            <mxRectangle x="110" y="-20" width="160" height="26" as="alternateBounds" />
          </mxGeometry>
        </mxCell>
        <mxCell id="X2My_VXnu280A-JcJ-9s-128" value="" style="line;html=1;strokeWidth=1;align=left;verticalAlign=middle;spacingTop=-1;spacingLeft=3;spacingRight=3;rotatable=0;labelPosition=right;points=[];portConstraint=eastwest;" vertex="1" parent="X2My_VXnu280A-JcJ-9s-126">
          <mxGeometry y="30" width="200" height="8" as="geometry" />
        </mxCell>
        <mxCell id="X2My_VXnu280A-JcJ-9s-112" value="+ agregarPan()" style="text;align=left;verticalAlign=top;spacingLeft=4;spacingRight=4;overflow=hidden;rotatable=0;points=[[0,0.5],[1,0.5]];portConstraint=eastwest;rounded=0;shadow=0;html=0;" vertex="1" parent="X2My_VXnu280A-JcJ-9s-126">
          <mxGeometry y="38" width="200" height="24" as="geometry" />
        </mxCell>
        <mxCell id="X2My_VXnu280A-JcJ-9s-113" value="+ agregarAderezo()" style="text;align=left;verticalAlign=top;spacingLeft=4;spacingRight=4;overflow=hidden;rotatable=0;points=[[0,0.5],[1,0.5]];portConstraint=eastwest;rounded=0;shadow=0;html=0;" vertex="1" parent="X2My_VXnu280A-JcJ-9s-126">
          <mxGeometry y="62" width="200" height="24" as="geometry" />
        </mxCell>
        <mxCell id="X2My_VXnu280A-JcJ-9s-151" value="+ agregarPrincipal()" style="text;align=left;verticalAlign=top;spacingLeft=4;spacingRight=4;overflow=hidden;rotatable=0;points=[[0,0.5],[1,0.5]];portConstraint=eastwest;rounded=0;shadow=0;html=0;" vertex="1" parent="X2My_VXnu280A-JcJ-9s-126">
          <mxGeometry y="86" width="200" height="24" as="geometry" />
        </mxCell>
        <mxCell id="X2My_VXnu280A-JcJ-9s-152" value="+ agregarAderezo()" style="text;align=left;verticalAlign=top;spacingLeft=4;spacingRight=4;overflow=hidden;rotatable=0;points=[[0,0.5],[1,0.5]];portConstraint=eastwest;rounded=0;shadow=0;html=0;" vertex="1" parent="X2My_VXnu280A-JcJ-9s-126">
          <mxGeometry y="110" width="200" height="24" as="geometry" />
        </mxCell>
        <mxCell id="X2My_VXnu280A-JcJ-9s-179" style="edgeStyle=orthogonalEdgeStyle;rounded=0;orthogonalLoop=1;jettySize=auto;html=1;endSize=12;startSize=12;endArrow=block;endFill=0;dashed=1;dashPattern=8 8;" edge="1" parent="1" source="X2My_VXnu280A-JcJ-9s-161" target="X2My_VXnu280A-JcJ-9s-109">
          <mxGeometry relative="1" as="geometry">
            <Array as="points">
              <mxPoint x="-440" y="-3101" />
              <mxPoint x="-320" y="-3101" />
            </Array>
          </mxGeometry>
        </mxCell>
        <mxCell id="X2My_VXnu280A-JcJ-9s-161" value="BuilderSangucheVegetariano" style="swimlane;fontStyle=0;align=center;verticalAlign=top;childLayout=stackLayout;horizontal=1;startSize=30;horizontalStack=0;resizeParent=1;resizeLast=0;collapsible=1;marginBottom=0;rounded=0;shadow=0;strokeWidth=1;fillColor=#fff2cc;strokeColor=#d6b656;" vertex="1" parent="1">
          <mxGeometry x="-540" y="-3011" width="200" height="150" as="geometry">
            <mxRectangle x="110" y="-20" width="160" height="26" as="alternateBounds" />
          </mxGeometry>
        </mxCell>
        <mxCell id="X2My_VXnu280A-JcJ-9s-162" value="" style="line;html=1;strokeWidth=1;align=left;verticalAlign=middle;spacingTop=-1;spacingLeft=3;spacingRight=3;rotatable=0;labelPosition=right;points=[];portConstraint=eastwest;" vertex="1" parent="X2My_VXnu280A-JcJ-9s-161">
          <mxGeometry y="30" width="200" height="8" as="geometry" />
        </mxCell>
        <mxCell id="X2My_VXnu280A-JcJ-9s-163" value="+ agregarPan()" style="text;align=left;verticalAlign=top;spacingLeft=4;spacingRight=4;overflow=hidden;rotatable=0;points=[[0,0.5],[1,0.5]];portConstraint=eastwest;rounded=0;shadow=0;html=0;" vertex="1" parent="X2My_VXnu280A-JcJ-9s-161">
          <mxGeometry y="38" width="200" height="24" as="geometry" />
        </mxCell>
        <mxCell id="X2My_VXnu280A-JcJ-9s-164" value="+ agregarAderezo()" style="text;align=left;verticalAlign=top;spacingLeft=4;spacingRight=4;overflow=hidden;rotatable=0;points=[[0,0.5],[1,0.5]];portConstraint=eastwest;rounded=0;shadow=0;html=0;" vertex="1" parent="X2My_VXnu280A-JcJ-9s-161">
          <mxGeometry y="62" width="200" height="24" as="geometry" />
        </mxCell>
        <mxCell id="X2My_VXnu280A-JcJ-9s-165" value="+ agregarPrincipal()" style="text;align=left;verticalAlign=top;spacingLeft=4;spacingRight=4;overflow=hidden;rotatable=0;points=[[0,0.5],[1,0.5]];portConstraint=eastwest;rounded=0;shadow=0;html=0;" vertex="1" parent="X2My_VXnu280A-JcJ-9s-161">
          <mxGeometry y="86" width="200" height="24" as="geometry" />
        </mxCell>
        <mxCell id="X2My_VXnu280A-JcJ-9s-166" value="+ agregarAderezo()" style="text;align=left;verticalAlign=top;spacingLeft=4;spacingRight=4;overflow=hidden;rotatable=0;points=[[0,0.5],[1,0.5]];portConstraint=eastwest;rounded=0;shadow=0;html=0;" vertex="1" parent="X2My_VXnu280A-JcJ-9s-161">
          <mxGeometry y="110" width="200" height="24" as="geometry" />
        </mxCell>
        <mxCell id="X2My_VXnu280A-JcJ-9s-180" style="edgeStyle=orthogonalEdgeStyle;rounded=0;orthogonalLoop=1;jettySize=auto;html=1;endSize=12;startSize=12;endArrow=block;endFill=0;dashed=1;dashPattern=8 8;" edge="1" parent="1" source="X2My_VXnu280A-JcJ-9s-167" target="X2My_VXnu280A-JcJ-9s-109">
          <mxGeometry relative="1" as="geometry">
            <Array as="points">
              <mxPoint x="-200" y="-3101" />
              <mxPoint x="-320" y="-3101" />
            </Array>
          </mxGeometry>
        </mxCell>
        <mxCell id="X2My_VXnu280A-JcJ-9s-167" value="BuilderSangucheClasico" style="swimlane;fontStyle=0;align=center;verticalAlign=top;childLayout=stackLayout;horizontal=1;startSize=30;horizontalStack=0;resizeParent=1;resizeLast=0;collapsible=1;marginBottom=0;rounded=0;shadow=0;strokeWidth=1;fillColor=#fff2cc;strokeColor=#d6b656;" vertex="1" parent="1">
          <mxGeometry x="-300" y="-3011" width="200" height="150" as="geometry">
            <mxRectangle x="110" y="-20" width="160" height="26" as="alternateBounds" />
          </mxGeometry>
        </mxCell>
        <mxCell id="X2My_VXnu280A-JcJ-9s-168" value="" style="line;html=1;strokeWidth=1;align=left;verticalAlign=middle;spacingTop=-1;spacingLeft=3;spacingRight=3;rotatable=0;labelPosition=right;points=[];portConstraint=eastwest;" vertex="1" parent="X2My_VXnu280A-JcJ-9s-167">
          <mxGeometry y="30" width="200" height="8" as="geometry" />
        </mxCell>
        <mxCell id="X2My_VXnu280A-JcJ-9s-169" value="+ agregarPan()" style="text;align=left;verticalAlign=top;spacingLeft=4;spacingRight=4;overflow=hidden;rotatable=0;points=[[0,0.5],[1,0.5]];portConstraint=eastwest;rounded=0;shadow=0;html=0;" vertex="1" parent="X2My_VXnu280A-JcJ-9s-167">
          <mxGeometry y="38" width="200" height="24" as="geometry" />
        </mxCell>
        <mxCell id="X2My_VXnu280A-JcJ-9s-170" value="+ agregarAderezo()" style="text;align=left;verticalAlign=top;spacingLeft=4;spacingRight=4;overflow=hidden;rotatable=0;points=[[0,0.5],[1,0.5]];portConstraint=eastwest;rounded=0;shadow=0;html=0;" vertex="1" parent="X2My_VXnu280A-JcJ-9s-167">
          <mxGeometry y="62" width="200" height="24" as="geometry" />
        </mxCell>
        <mxCell id="X2My_VXnu280A-JcJ-9s-171" value="+ agregarPrincipal()" style="text;align=left;verticalAlign=top;spacingLeft=4;spacingRight=4;overflow=hidden;rotatable=0;points=[[0,0.5],[1,0.5]];portConstraint=eastwest;rounded=0;shadow=0;html=0;" vertex="1" parent="X2My_VXnu280A-JcJ-9s-167">
          <mxGeometry y="86" width="200" height="24" as="geometry" />
        </mxCell>
        <mxCell id="X2My_VXnu280A-JcJ-9s-172" value="+ agregarAderezo()" style="text;align=left;verticalAlign=top;spacingLeft=4;spacingRight=4;overflow=hidden;rotatable=0;points=[[0,0.5],[1,0.5]];portConstraint=eastwest;rounded=0;shadow=0;html=0;" vertex="1" parent="X2My_VXnu280A-JcJ-9s-167">
          <mxGeometry y="110" width="200" height="24" as="geometry" />
        </mxCell>
        <mxCell id="X2My_VXnu280A-JcJ-9s-181" style="edgeStyle=orthogonalEdgeStyle;rounded=0;orthogonalLoop=1;jettySize=auto;html=1;endSize=12;startSize=12;endArrow=block;endFill=0;dashed=1;dashPattern=8 8;" edge="1" parent="1" source="X2My_VXnu280A-JcJ-9s-173" target="X2My_VXnu280A-JcJ-9s-109">
          <mxGeometry relative="1" as="geometry">
            <Array as="points">
              <mxPoint x="40" y="-3101" />
              <mxPoint x="-320" y="-3101" />
            </Array>
          </mxGeometry>
        </mxCell>
        <mxCell id="X2My_VXnu280A-JcJ-9s-173" value="BuilderSangucheVegetariano" style="swimlane;fontStyle=0;align=center;verticalAlign=top;childLayout=stackLayout;horizontal=1;startSize=30;horizontalStack=0;resizeParent=1;resizeLast=0;collapsible=1;marginBottom=0;rounded=0;shadow=0;strokeWidth=1;fillColor=#fff2cc;strokeColor=#d6b656;" vertex="1" parent="1">
          <mxGeometry x="-60" y="-3011" width="200" height="150" as="geometry">
            <mxRectangle x="110" y="-20" width="160" height="26" as="alternateBounds" />
          </mxGeometry>
        </mxCell>
        <mxCell id="X2My_VXnu280A-JcJ-9s-174" value="" style="line;html=1;strokeWidth=1;align=left;verticalAlign=middle;spacingTop=-1;spacingLeft=3;spacingRight=3;rotatable=0;labelPosition=right;points=[];portConstraint=eastwest;" vertex="1" parent="X2My_VXnu280A-JcJ-9s-173">
          <mxGeometry y="30" width="200" height="8" as="geometry" />
        </mxCell>
        <mxCell id="X2My_VXnu280A-JcJ-9s-175" value="+ agregarPan()" style="text;align=left;verticalAlign=top;spacingLeft=4;spacingRight=4;overflow=hidden;rotatable=0;points=[[0,0.5],[1,0.5]];portConstraint=eastwest;rounded=0;shadow=0;html=0;" vertex="1" parent="X2My_VXnu280A-JcJ-9s-173">
          <mxGeometry y="38" width="200" height="24" as="geometry" />
        </mxCell>
        <mxCell id="X2My_VXnu280A-JcJ-9s-176" value="+ agregarAderezo()" style="text;align=left;verticalAlign=top;spacingLeft=4;spacingRight=4;overflow=hidden;rotatable=0;points=[[0,0.5],[1,0.5]];portConstraint=eastwest;rounded=0;shadow=0;html=0;" vertex="1" parent="X2My_VXnu280A-JcJ-9s-173">
          <mxGeometry y="62" width="200" height="24" as="geometry" />
        </mxCell>
        <mxCell id="X2My_VXnu280A-JcJ-9s-177" value="+ agregarPrincipal()" style="text;align=left;verticalAlign=top;spacingLeft=4;spacingRight=4;overflow=hidden;rotatable=0;points=[[0,0.5],[1,0.5]];portConstraint=eastwest;rounded=0;shadow=0;html=0;" vertex="1" parent="X2My_VXnu280A-JcJ-9s-173">
          <mxGeometry y="86" width="200" height="24" as="geometry" />
        </mxCell>
        <mxCell id="X2My_VXnu280A-JcJ-9s-178" value="+ agregarAderezo()" style="text;align=left;verticalAlign=top;spacingLeft=4;spacingRight=4;overflow=hidden;rotatable=0;points=[[0,0.5],[1,0.5]];portConstraint=eastwest;rounded=0;shadow=0;html=0;" vertex="1" parent="X2My_VXnu280A-JcJ-9s-173">
          <mxGeometry y="110" width="200" height="24" as="geometry" />
        </mxCell>
        <mxCell id="X2My_VXnu280A-JcJ-9s-183" value="&lt;b style=&quot;font-size: 16px;&quot;&gt;&lt;i style=&quot;font-size: 16px;&quot;&gt;Concrete&lt;/i&gt;&lt;/b&gt;&lt;div&gt;&lt;b style=&quot;font-size: 16px;&quot;&gt;&lt;i style=&quot;font-size: 16px;&quot;&gt;Builder&lt;/i&gt;&lt;/b&gt;&lt;/div&gt;" style="text;html=1;align=center;verticalAlign=middle;whiteSpace=wrap;rounded=0;fontSize=16;" vertex="1" parent="1">
          <mxGeometry x="-780" y="-3051" width="80" height="40" as="geometry" />
        </mxCell>
        <mxCell id="X2My_VXnu280A-JcJ-9s-184" value="&lt;b style=&quot;font-size: 16px;&quot;&gt;&lt;i style=&quot;font-size: 16px;&quot;&gt;Concrete&lt;/i&gt;&lt;/b&gt;&lt;div&gt;&lt;b style=&quot;font-size: 16px;&quot;&gt;&lt;i style=&quot;font-size: 16px;&quot;&gt;Builder&lt;/i&gt;&lt;/b&gt;&lt;/div&gt;" style="text;html=1;align=center;verticalAlign=middle;whiteSpace=wrap;rounded=0;fontSize=16;" vertex="1" parent="1">
          <mxGeometry x="-540" y="-3051" width="80" height="40" as="geometry" />
        </mxCell>
        <mxCell id="X2My_VXnu280A-JcJ-9s-185" value="&lt;b style=&quot;font-size: 16px;&quot;&gt;&lt;i style=&quot;font-size: 16px;&quot;&gt;Concrete&lt;/i&gt;&lt;/b&gt;&lt;div&gt;&lt;b style=&quot;font-size: 16px;&quot;&gt;&lt;i style=&quot;font-size: 16px;&quot;&gt;Builder&lt;/i&gt;&lt;/b&gt;&lt;/div&gt;" style="text;html=1;align=center;verticalAlign=middle;whiteSpace=wrap;rounded=0;fontSize=16;" vertex="1" parent="1">
          <mxGeometry x="-300" y="-3051" width="80" height="40" as="geometry" />
        </mxCell>
        <mxCell id="X2My_VXnu280A-JcJ-9s-186" value="&lt;b style=&quot;font-size: 16px;&quot;&gt;&lt;i style=&quot;font-size: 16px;&quot;&gt;Concrete&lt;/i&gt;&lt;/b&gt;&lt;div&gt;&lt;b style=&quot;font-size: 16px;&quot;&gt;&lt;i style=&quot;font-size: 16px;&quot;&gt;Builder&lt;/i&gt;&lt;/b&gt;&lt;/div&gt;" style="text;html=1;align=center;verticalAlign=middle;whiteSpace=wrap;rounded=0;fontSize=16;" vertex="1" parent="1">
          <mxGeometry x="-60" y="-3051" width="80" height="40" as="geometry" />
        </mxCell>
        <mxCell id="X2My_VXnu280A-JcJ-9s-187" value="&lt;b style=&quot;background-color: initial;&quot;&gt;&lt;i&gt;Builder&lt;/i&gt;&lt;/b&gt;" style="text;html=1;align=center;verticalAlign=middle;whiteSpace=wrap;rounded=0;fontSize=16;" vertex="1" parent="1">
          <mxGeometry x="-460" y="-3340" width="60" height="30" as="geometry" />
        </mxCell>
        <mxCell id="X2My_VXnu280A-JcJ-9s-188" value="&lt;b style=&quot;background-color: initial;&quot;&gt;&lt;i&gt;Product&lt;/i&gt;&lt;/b&gt;" style="text;html=1;align=center;verticalAlign=middle;whiteSpace=wrap;rounded=0;fontSize=16;" vertex="1" parent="1">
          <mxGeometry x="-20" y="-3321" width="70" height="30" as="geometry" />
        </mxCell>
        <mxCell id="X2My_VXnu280A-JcJ-9s-189" value="&lt;b style=&quot;background-color: initial;&quot;&gt;&lt;i&gt;Director&lt;/i&gt;&lt;/b&gt;" style="text;html=1;align=center;verticalAlign=middle;whiteSpace=wrap;rounded=0;fontSize=16;" vertex="1" parent="1">
          <mxGeometry x="-840" y="-3321" width="70" height="30" as="geometry" />
        </mxCell>
      </root>
    </mxGraphModel>
  </diagram>
</mxfile>
